<svg xmlns:dc="http://purl.org/dc/elements/1.1/" xmlns:cc="http://creativecommons.org/ns#" xmlns:rdf="http://www.w3.org/1999/02/22-rdf-syntax-ns#" xmlns:svg="http://www.w3.org/2000/svg" xmlns="http://www.w3.org/2000/svg" xmlns:sodipodi="http://sodipodi.sourceforge.net/DTD/sodipodi-0.dtd" xmlns:inkscape="http://www.inkscape.org/namespaces/inkscape" version="1.1" id="Layer_1" x="0px" y="0px" width="130" height="130" viewBox="0 0 130 130" xml:space="preserve" inkscape:version="0.92.4 (5da689c313, 2019-01-14)" sodipodi:docname="Experte_Dunkelblau.svg" inkscape:export-filename="C:\Users\carol\Downloads\Andreas_Icons\Experte_dunkelblau_48.png" inkscape:export-xdpi="35.446156" inkscape:export-ydpi="35.446156"><metadata id="metadata113"/><defs id="defs111"><clipPath clipPathUnits="userSpaceOnUse" id="clipPath2481"><rect style="opacity:1;fill:#ffffff;fill-opacity:1;stroke:none;stroke-width:0.37979412;stroke-miterlimit:10;stroke-dasharray:none;stroke-dashoffset:0;stroke-opacity:1" id="rect2483" width="230.30434" height="309.49979" x="84.040886" y="472.79477" transform="matrix(0.72916041,0.68434282,-0.68274375,0.7306579,0,0)"/></clipPath></defs><path inkscape:connector-curvature="0" id="path876" d="m 81.618995,128.68329 c -0.302639,-0.48617 -1.011983,-1.70435 -1.576315,-2.70706 -0.564321,-1.00271 -1.166329,-1.8778 -1.337794,-1.94464 -0.171454,-0.0667 -1.660578,0.11933 -3.309156,0.41372 -1.807508,0.32278 -3.077893,0.45095 -3.200135,0.32289 -0.171091,-0.17925 3.96958,-9.4975 4.413567,-9.93239 0.0776,-0.076 0.669881,0.58672 1.316277,1.47265 0.690864,0.94687 1.683115,1.95431 2.407466,2.44429 1.476498,0.99878 3.754052,1.74865 5.311008,1.74865 0.623697,0 1.133993,0.0307 1.133993,0.0682 0,0.31693 -4.18086,8.85503 -4.366313,8.91686 -0.133295,0.0444 -0.48996,-0.31702 -0.792598,-0.80318 z m 18.385105,-1.03666 c -0.492691,-1.06283 -1.428636,-3.06768 -2.079875,-4.45525 -0.65124,-1.38756 -1.184073,-2.54531 -1.184073,-2.5728 0,-0.0274 0.707869,-0.10931 1.573044,-0.18184 3.066774,-0.2571 5.420514,-1.60974 7.332244,-4.21366 0.61653,-0.83978 1.1812,-1.46666 1.25481,-1.39306 0.43791,0.43792 4.58267,9.76171 4.41787,9.93818 -0.11934,0.12777 -1.38726,7e-5 -3.18289,-0.32059 -1.64149,-0.29313 -3.11725,-0.48872 -3.27944,-0.43465 -0.16221,0.0541 -0.98824,1.28509 -1.83563,2.73561 -0.84737,1.45051 -1.67109,2.68076 -1.83047,2.73389 -0.17719,0.0591 -0.63782,-0.6542 -1.18559,-1.83583 z M 84.113591,115.62321 c -1.101999,-0.32158 -2.098136,-1.32787 -3.655153,-3.69245 -1.563497,-2.37442 -1.686224,-2.46386 -6.108854,-4.4521 -1.015435,-0.45649 -1.580887,-0.89356 -2.071673,-1.60132 -0.73398,-1.05844 -0.778812,-1.60221 -0.542593,-6.581198 l 0.09921,-2.091657 -1.235636,-2.516709 c -0.994714,-2.026001 -1.237735,-2.749701 -1.246375,-3.711646 -0.01504,-1.67277 0.469542,-2.477271 2.938887,-4.879204 l 2.143634,-2.085121 0.639209,-2.66432 c 1.156045,-4.818542 1.920757,-5.504796 6.453691,-5.791532 1.549518,-0.09802 3.025824,-0.258437 3.280674,-0.356489 0.25484,-0.09805 1.359796,-0.8387 2.455437,-1.645878 3.943763,-2.90543 5.177492,-2.901002 9.009639,0.03234 0.95399,0.730234 1.996554,1.432401 2.316803,1.560371 0.320251,0.127967 1.840419,0.312016 3.378169,0.408997 3.08201,0.194374 3.79637,0.441732 4.89752,1.695868 0.66367,0.755889 0.88368,1.396646 1.96332,5.71809 0.21555,0.862746 0.6296,1.402189 2.40062,3.127681 2.48676,2.422823 2.88603,3.095019 2.88603,4.858918 0,1.05078 -0.17765,1.644212 -0.95509,3.190471 -1.64677,3.27525 -1.66289,3.357586 -1.3358,6.822318 0.26549,2.81208 0.25539,3.1295 -0.12647,3.97634 -0.60279,1.33673 -1.63773,2.20806 -3.60632,3.0362 -3.11708,1.31127 -3.57119,1.67616 -5.30825,4.2652 -1.69193,2.52178 -2.148,2.94397 -3.674116,3.40119 -1.077384,0.3228 -1.859929,0.20435 -5.265975,-0.79713 l -2.085125,-0.61308 -2.883851,0.81523 c -2.981114,0.84272 -3.582244,0.91475 -4.761583,0.57062 z m 11.736306,-9.39682 C 102.191,104.22801 106.17512,97.410143 104.74863,90.99837 102.34638,80.20071 89.221858,76.678685 81.829195,84.847834 c -2.370658,2.619671 -3.522606,5.864269 -3.322367,9.357892 0.373479,6.516414 4.854748,11.455534 11.458355,12.629044 1.556281,0.27657 3.818885,0.0427 5.884714,-0.60838 z m -70.091863,-0.61041 c -0.923964,-1.45779 1.549185,-9.701086 4.387468,-14.623971 3.14075,-5.447484 7.597494,-10.240336 12.729043,-13.689013 1.921939,-1.291644 7.070444,-3.855726 9.035519,-4.499908 6.565618,-2.152302 14.17275,-2.674469 20.613441,-1.41494 1.398321,0.273451 2.62985,0.551228 2.73672,0.617282 0.106882,0.06606 -0.433712,0.688441 -1.201311,1.383082 -1.6673,1.508816 -2.566274,3.209313 -3.288961,6.221373 l -0.500293,2.08512 -2.023218,2.002926 c -2.151284,2.129708 -2.772387,3.140452 -3.371428,5.486494 -0.531258,2.080558 -0.176147,3.983252 1.310958,7.024226 l 1.14132,2.333881 -0.266599,2.001838 c -0.146636,1.10102 -0.204387,2.80983 -0.128348,3.79737 l 0.138259,1.79552 H 46.579516 26.088428 Z M 62.914864,67.520818 C 58.297335,67.04595 53.823928,64.857743 50.621612,61.507456 47.061845,57.783202 45.297473,53.744348 44.944916,48.512882 44.56626,42.893929 46.558463,37.739005 50.751668,33.487607 c 3.335618,-3.381901 6.891177,-5.168262 11.6059,-5.830952 2.421354,-0.340341 2.862434,-0.340489 5.272191,-0.0018 3.263588,0.458722 5.80463,1.423336 8.519208,3.234003 4.230001,2.821481 7.402856,7.476014 8.432248,12.369987 0.497892,2.367071 0.514151,6.414034 0.03462,8.622953 -1.061892,4.891774 -4.190147,9.416776 -8.505634,12.303361 -3.903039,2.610771 -8.628642,3.805351 -13.195356,3.335713 z m 43.638826,-6.71928 c -0.1455,-0.05252 -1.13594,-1.287779 -2.20095,-2.745018 -1.06503,-1.45724 -2.12135,-2.711192 -2.34735,-2.786559 -0.22601,-0.07536 -1.7087,0.295443 -3.294835,0.824026 -3.008293,1.002519 -3.727094,1.074952 -4.139379,0.417128 -0.195627,-0.312115 -0.09396,-0.601369 0.488526,-1.390079 2.354086,-3.187471 3.342532,-4.789998 3.210711,-5.205347 -0.07671,-0.241568 -0.97699,-1.582652 -2.000701,-2.98019 -2.802605,-3.826003 -2.395758,-4.26825 2.443063,-2.655704 1.584915,0.528174 3.066605,0.899269 3.292615,0.824652 0.226,-0.07462 1.24499,-1.290247 2.26438,-2.701404 1.98751,-2.75133 2.33842,-3.074605 2.9599,-2.726807 0.34919,0.195417 0.39946,0.641592 0.39946,3.545732 0,2.832056 0.0599,3.390909 0.40544,3.788044 0.23493,0.26994 1.64049,0.871001 3.34215,1.429201 4.55526,1.494271 4.55148,1.927131 -0.0304,3.499208 -1.79112,0.614537 -3.21357,1.239092 -3.3987,1.492278 -0.23486,0.321188 -0.31839,1.303017 -0.31839,3.742354 0,2.915563 -0.0479,3.331605 -0.40545,3.515452 -0.22299,0.114689 -0.52448,0.165554 -0.66999,0.113033 z M 22.52532,60.573509 c -0.08498,-0.08495 -0.154459,-1.628862 -0.154459,-3.430921 0,-2.413495 -0.08387,-3.391148 -0.318382,-3.711889 -0.185141,-0.253186 -1.607583,-0.877741 -3.39872,-1.492278 -4.581973,-1.572077 -4.585748,-2.004937 -0.03047,-3.499208 1.701665,-0.5582 3.107231,-1.159261 3.342159,-1.429201 0.345674,-0.397183 0.405442,-0.956147 0.405442,-3.791407 0,-3.092124 0.0326,-3.343005 0.464909,-3.574355 0.583579,-0.31232 0.913549,0.01349 3.126137,3.086686 0.89197,1.238912 1.830266,2.305728 2.085116,2.370707 0.25485,0.06497 1.709548,-0.302121 3.232673,-0.815771 3.150136,-1.062341 3.964061,-1.154361 4.180428,-0.472625 0.172654,0.543977 0.330302,0.265743 -1.976591,3.488419 -1.01501,1.417929 -1.845466,2.716117 -1.845466,2.884856 0,0.168739 0.846816,1.488843 1.88181,2.933559 2.168745,3.027276 2.204261,3.096585 1.822616,3.55643 -0.430079,0.518216 -1.035569,0.431223 -4.051947,-0.582149 -1.517151,-0.509696 -2.889604,-0.926721 -3.049885,-0.926721 -0.408551,0 -1.025003,0.702587 -2.896699,3.301441 -1.224534,1.700265 -1.755116,2.258881 -2.145521,2.258881 -0.28527,0 -0.588171,-0.0695 -0.67312,-0.154454 z m 16.1177,-27.01003 c -0.128632,-0.15928 -0.818567,-1.45975 -1.533188,-2.889935 -0.714623,-1.430184 -1.53439,-2.749524 -1.821698,-2.931869 -0.457935,-0.290634 -0.865387,-0.27592 -3.302546,0.119265 -3.399465,0.55122 -4.142165,0.513916 -4.245312,-0.213235 -0.05784,-0.407432 0.489333,-1.108651 2.377582,-3.047154 2.82392,-2.899089 2.743935,-2.21313 0.726966,-6.23486 -0.710535,-1.416765 -1.291884,-2.730388 -1.291884,-2.919162 0,-0.188776 0.193457,-0.446762 0.429909,-0.573303 0.33994,-0.181935 1.044642,0.08298 3.367956,1.266088 1.615938,0.822891 3.102074,1.496164 3.302535,1.496164 0.20045,0 1.488286,-1.094688 2.861848,-2.43264 1.373563,-1.337953 2.652497,-2.432641 2.842088,-2.432641 0.856031,0 0.905424,0.546744 0.364709,4.037425 -0.628512,4.057545 -0.866567,3.618732 3.084746,5.686171 4.011707,2.099028 3.926323,2.561604 -0.602927,3.266395 -1.630714,0.253756 -3.165729,0.568835 -3.411143,0.700179 -0.610132,0.326532 -0.761664,0.821181 -1.235535,4.033351 -0.428444,2.904215 -0.600998,3.359361 -1.273615,3.359361 -0.223643,0 -0.51187,-0.13032 -0.640491,-0.2896 z m 51.296851,-0.10237 c -0.06672,-0.2304 -0.286127,-1.513598 -0.487527,-2.85155 -0.528584,-3.51147 -0.578099,-3.688866 -1.130722,-4.050785 -0.275632,-0.180511 -1.848726,-0.537848 -3.495771,-0.794081 -4.689106,-0.729489 -4.755224,-1.20592 -0.47372,-3.413266 1.518696,-0.782965 2.90765,-1.644054 3.086583,-1.913532 0.282878,-0.426042 0.258898,-0.914744 -0.183859,-3.746075 -0.526585,-3.367499 -0.471781,-3.921623 0.387852,-3.921623 0.189581,0 1.468525,1.094688 2.842088,2.432641 1.373562,1.337952 2.624004,2.43264 2.778763,2.43264 0.154762,0 1.667664,-0.698984 3.362002,-1.553299 2.639557,-1.330911 3.133655,-1.509284 3.45104,-1.245872 0.20374,0.169084 0.37043,0.452782 0.37043,0.630438 0,0.177656 -0.581349,1.482181 -1.291882,2.898946 -2.016971,4.02173 -2.096955,3.335771 0.726974,6.23486 1.888248,1.938503 2.435398,2.639722 2.377598,3.047154 -0.1033,0.728242 -0.84991,0.764881 -4.245327,0.208337 -2.609713,-0.427759 -2.813495,-0.431893 -3.323771,-0.06741 -0.298975,0.213561 -1.185152,1.63936 -1.969271,3.168447 -1.233244,2.404892 -1.508996,2.789797 -2.042908,2.85155 -0.43552,0.05037 -0.652956,-0.05195 -0.738572,-0.347519 z M 58.125759,20.279967 c -0.07751,-0.202045 0.3246,-1.797877 0.893636,-3.546293 0.7383,-2.268546 0.976406,-3.307866 0.831394,-3.629128 -0.111756,-0.247603 -1.370726,-1.291809 -2.79772,-2.320458 -3.894421,-2.8073006 -3.706767,-3.3425313 1.171871,-3.3425313 1.70425,0 3.291251,-0.1030896 3.526683,-0.2290876 0.282051,-0.150948 0.797059,-1.3362904 1.509905,-3.4751993 1.051697,-3.15564862 1.100142,-3.2461133 1.738464,-3.2461133 0.638311,0 0.686766,0.0904606 1.738463,3.2461133 0.712845,2.1389089 1.227844,3.3242513 1.509894,3.4751993 0.235432,0.125998 1.797093,0.2290876 3.470357,0.2290876 4.972086,0 5.13918,0.4834987 1.168328,3.3807423 -1.523631,1.111681 -2.804089,2.187185 -2.845479,2.390009 -0.04137,0.202824 0.373227,1.765814 0.921371,3.473314 0.548133,1.707499 0.935399,3.297405 0.860582,3.533121 -0.254104,0.800614 -1.174949,0.452513 -3.769231,-1.424864 -1.408665,-1.019393 -2.783095,-1.85344 -3.054285,-1.85344 -0.2712,0 -1.645631,0.834047 -3.054297,1.85344 -2.551226,1.846219 -3.534889,2.228899 -3.819936,1.486088 z" style="fill:#14344c;fill-opacity:1;stroke-width:0.23168004"/><path style="opacity:1;fill:#14344c;fill-opacity:1;stroke:none;stroke-width:0.75590551;stroke-linecap:round;stroke-linejoin:bevel;stroke-miterlimit:4;stroke-dasharray:none;stroke-dashoffset:0;stroke-opacity:1" id="path911" sodipodi:type="arc" sodipodi:cx="-0.84745687" sodipodi:cy="-36.525436" sodipodi:rx="58.474575" sodipodi:ry="70.762711" sodipodi:start="3.4976398" sodipodi:end="5.9271381" d="M -55.654623,-61.191338 A 58.474575,70.762711 0 0 1 -0.84745865,-107.28815 58.474575,70.762711 0 0 1 53.959708,-61.191342 l -54.80716487,24.665906 z"/><path style="opacity:1;fill:#f5c400;fill-opacity:1;stroke:none;stroke-width:0.75590551;stroke-linecap:round;stroke-linejoin:bevel;stroke-miterlimit:4;stroke-dasharray:none;stroke-dashoffset:0;stroke-opacity:1" id="path913" sodipodi:type="arc" sodipodi:cx="181.77965" sodipodi:cy="-32.288132" sodipodi:rx="63.135593" sodipodi:ry="74.152542" sodipodi:start="3.4976398" sodipodi:end="5.9271381" d="m 122.60379,-58.135634 a 63.135593,74.152542 0 0 1 59.17586,-48.305036 63.135593,74.152542 0 0 1 59.17585,48.305032 l -59.17585,25.847506 z"/></svg>