<svg xmlns:dc="http://purl.org/dc/elements/1.1/" xmlns:cc="http://creativecommons.org/ns#" xmlns:rdf="http://www.w3.org/1999/02/22-rdf-syntax-ns#" xmlns:svg="http://www.w3.org/2000/svg" xmlns="http://www.w3.org/2000/svg" xmlns:sodipodi="http://sodipodi.sourceforge.net/DTD/sodipodi-0.dtd" xmlns:inkscape="http://www.inkscape.org/namespaces/inkscape" version="1.1" id="Layer_1" x="0px" y="0px" width="130" height="130" viewBox="0 0 130 130" xml:space="preserve" inkscape:version="0.92.4 (5da689c313, 2019-01-14)" sodipodi:docname="Geldsack_Dunkelblau.svg" inkscape:export-filename="C:\Users\carol\Downloads\Andreas_Icons\Geldsack_dunkelblau_48.png" inkscape:export-xdpi="35.446156" inkscape:export-ydpi="35.446156"><metadata id="metadata113"/><defs id="defs111"><clipPath clipPathUnits="userSpaceOnUse" id="clipPath2481"><rect style="opacity:1;fill:#ffffff;fill-opacity:1;stroke:none;stroke-width:0.37979412;stroke-miterlimit:10;stroke-dasharray:none;stroke-dashoffset:0;stroke-opacity:1" id="rect2483" width="230.30434" height="309.49979" x="84.040886" y="472.79477" transform="matrix(0.72916041,0.68434282,-0.68274375,0.7306579,0,0)"/></clipPath></defs><path style="opacity:1;fill:#14344c;fill-opacity:1;stroke:none;stroke-width:0.75590551;stroke-linecap:round;stroke-linejoin:bevel;stroke-miterlimit:4;stroke-dasharray:none;stroke-dashoffset:0;stroke-opacity:1" id="path911" sodipodi:type="arc" sodipodi:cx="-0.84745687" sodipodi:cy="-36.525436" sodipodi:rx="58.474575" sodipodi:ry="70.762711" sodipodi:start="3.4976398" sodipodi:end="5.9271381" d="M -55.654623,-61.191338 A 58.474575,70.762711 0 0 1 -0.84745865,-107.28815 58.474575,70.762711 0 0 1 53.959708,-61.191342 l -54.80716487,24.665906 z"/><path style="opacity:1;fill:#f5c400;fill-opacity:1;stroke:none;stroke-width:0.75590551;stroke-linecap:round;stroke-linejoin:bevel;stroke-miterlimit:4;stroke-dasharray:none;stroke-dashoffset:0;stroke-opacity:1" id="path913" sodipodi:type="arc" sodipodi:cx="181.77965" sodipodi:cy="-32.288132" sodipodi:rx="63.135593" sodipodi:ry="74.152542" sodipodi:start="3.4976398" sodipodi:end="5.9271381" d="m 122.60379,-58.135634 a 63.135593,74.152542 0 0 1 59.17586,-48.305036 63.135593,74.152542 0 0 1 59.17585,48.305032 l -59.17585,25.847506 z"/><path inkscape:connector-curvature="0" id="path846" d="m 58.22337,129.47321 c -6.063051,-0.51765 -7.761352,-0.70704 -10.072801,-1.12325 -7.870762,-1.41726 -14.101182,-3.65977 -21.432354,-7.71415 -6.246532,-3.45454 -8.681251,-5.77226 -10.870092,-10.3478 -1.88114,-3.93232 -2.284926,-6.26841 -2.12172,-12.275244 0.09484,-3.490607 0.271331,-5.440012 0.652374,-7.205718 1.209136,-5.60302 2.738116,-9.918526 5.566988,-15.712682 1.73317,-3.549924 2.28144,-4.407648 4.605721,-7.205332 5.229277,-6.294357 8.609001,-11.388075 14.679414,-22.123959 2.021838,-3.575736 4.265309,-5.945586 6.683842,-7.06036 l 1.807086,-0.83294 15.1359,0.151553 c 16.68184,0.167034 16.805448,0.178059 19.984925,1.78242 2.207782,1.114046 4.642379,3.370519 6.968982,6.459116 2.606756,3.460494 16.110025,23.756532 17.848545,26.827205 2.64258,4.667427 6.53099,13.682364 7.64093,17.714759 1.72393,6.263028 1.22853,12.502852 -1.46827,18.493832 -1.85783,4.12719 -3.60683,6.59274 -6.92675,9.76457 -3.07208,2.93505 -5.58208,4.44597 -9.897744,5.95803 -4.065804,1.42453 -12.524394,2.85249 -23.548024,3.97533 -3.524761,0.35902 -13.09816,0.65722 -15.236952,0.47462 z m 9.570316,-21.23718 0.125927,-1.86556 1.731925,-0.70032 c 4.944449,-1.99933 7.838392,-6.360675 7.838392,-11.812919 0,-5.451884 -2.892103,-9.810854 -7.838392,-11.813995 l -1.731925,-0.701389 -0.06778,-5.579284 c -0.07484,-6.15948 -0.04617,-6.258702 1.375355,-4.760765 0.910126,0.959039 1.588705,2.217671 1.588705,2.946737 0,0.398058 0.162177,0.516207 0.708601,0.516207 1.034009,0 6.335809,-0.721247 6.627646,-0.901609 0.561396,-0.346971 -0.78505,-4.531373 -2.060029,-6.402057 -1.65691,-2.431058 -3.990505,-4.215405 -6.451411,-4.932958 -0.715616,-0.208656 -1.417914,-0.520112 -1.560668,-0.692111 -0.142747,-0.172008 -0.293904,-1.045052 -0.335905,-1.940109 l -0.07637,-1.627369 H 65.149254 62.63075 l -0.07422,1.837405 -0.07423,1.837412 -1.814651,0.840214 c -4.275674,1.979722 -6.397786,4.442907 -7.497423,8.702461 -1.636183,6.33789 1.874204,13.049038 7.895766,15.095106 l 1.312913,0.446114 0.06778,5.579793 c 0.06617,5.446238 0.05564,5.5798 -0.439161,5.5798 -0.63773,0 -1.922076,-1.732249 -2.317575,-3.125804 -0.16073,-0.566344 -0.358132,-1.10889 -0.438673,-1.205652 -0.08054,-0.09681 -1.733083,-0.03675 -3.672336,0.133333 l -3.52591,0.309265 0.06023,0.999989 c 0.102509,1.701779 1.076895,4.451631 2.169639,6.123025 1.170138,1.78979 3.627205,3.81228 5.451567,4.48734 3.015158,1.11568 2.770353,0.87926 2.770353,2.67548 0,0.88435 0.07939,1.68729 0.176412,1.78431 0.09702,0.097 1.258685,0.14425 2.581467,0.10495 l 2.405057,-0.0715 z m 0,-15.008426 c 0,-4.926378 0.02218,-5.162939 0.484377,-5.162939 0.755953,0 1.932053,1.144828 2.644173,2.573867 1.176174,2.360278 0.728244,4.674767 -1.317484,6.807567 -0.49824,0.519436 -1.109553,0.944441 -1.358477,0.944441 -0.420831,0 -0.452589,-0.362263 -0.452589,-5.162936 z m -6.91705,-13.751877 c -2.703077,-2.373339 -2.750424,-6.086485 -0.110766,-8.686454 0.843766,-0.831084 1.313706,-1.131979 1.491003,-0.954686 0.377489,0.377488 0.216646,10.223721 -0.169106,10.352053 -0.160129,0.0533 -0.705134,-0.266647 -1.211131,-0.710913 z M 63.638153,31.499012 C 57.543371,31.303506 52.32015,31.089997 52.030992,31.024547 50.667619,30.715946 50.121265,29.799415 43.979578,17.51805 40.249697,10.059501 37.823481,4.924368 37.823481,4.488547 c 0,-0.983649 0.957627,-2.3414232 2.018126,-2.8614155 1.598864,-0.78395835 5.372367,-1.27509786 8.685519,-1.13045296 5.162514,0.22537666 7.459342,1.13390286 14.023236,5.54698686 4.775829,3.2109156 6.630359,3.9209198 10.790679,4.1311916 4.201246,0.212341 6.981477,-0.5796313 13.008033,-3.7054538 1.873993,-0.9719896 3.653752,-1.7672555 3.95502,-1.7672555 0.301268,0 0.81385,0.1863688 1.139066,0.4141596 1.937333,1.3569632 -1.241189,8.3120877 -9.30621,20.3635057 -1.761273,2.631837 -3.553199,5.115626 -3.982055,5.519528 -1.00407,0.945644 -0.815772,0.939163 -14.516742,0.499671 z" style="fill:#14344c;stroke-width:0.25185049;fill-opacity:1"/></svg>