<svg xmlns:dc="http://purl.org/dc/elements/1.1/" xmlns:cc="http://creativecommons.org/ns#" xmlns:rdf="http://www.w3.org/1999/02/22-rdf-syntax-ns#" xmlns:svg="http://www.w3.org/2000/svg" xmlns="http://www.w3.org/2000/svg" xmlns:sodipodi="http://sodipodi.sourceforge.net/DTD/sodipodi-0.dtd" xmlns:inkscape="http://www.inkscape.org/namespaces/inkscape" version="1.1" id="Layer_1" x="0px" y="0px" width="130" height="130" viewBox="0 0 130 130" xml:space="preserve" inkscape:version="0.92.4 (5da689c313, 2019-01-14)" sodipodi:docname="Law_Gelb.svg" inkscape:export-filename="C:\Users\carol\Downloads\Andreas_Icons\Law_gelb_48.png" inkscape:export-xdpi="35.446156" inkscape:export-ydpi="35.446156"><metadata id="metadata113"/><defs id="defs111"><clipPath clipPathUnits="userSpaceOnUse" id="clipPath2481"><rect style="opacity:1;fill:#ffffff;fill-opacity:1;stroke:none;stroke-width:0.37979412;stroke-miterlimit:10;stroke-dasharray:none;stroke-dashoffset:0;stroke-opacity:1" id="rect2483" width="230.30434" height="309.49979" x="84.040886" y="472.79477" transform="matrix(0.72916041,0.68434282,-0.68274375,0.7306579,0,0)"/></clipPath></defs><path style="opacity:1;fill:#14344c;fill-opacity:1;stroke:none;stroke-width:0.75590551;stroke-linecap:round;stroke-linejoin:bevel;stroke-miterlimit:4;stroke-dasharray:none;stroke-dashoffset:0;stroke-opacity:1" id="path911" sodipodi:type="arc" sodipodi:cx="-0.84745687" sodipodi:cy="-36.525436" sodipodi:rx="58.474575" sodipodi:ry="70.762711" sodipodi:start="3.4976398" sodipodi:end="5.9271381" d="M -55.654623,-61.191338 A 58.474575,70.762711 0 0 1 -0.84745865,-107.28815 58.474575,70.762711 0 0 1 53.959708,-61.191342 l -54.80716487,24.665906 z"/><path style="opacity:1;fill:#f5c400;fill-opacity:1;stroke:none;stroke-width:0.75590551;stroke-linecap:round;stroke-linejoin:bevel;stroke-miterlimit:4;stroke-dasharray:none;stroke-dashoffset:0;stroke-opacity:1" id="path913" sodipodi:type="arc" sodipodi:cx="181.77965" sodipodi:cy="-32.288132" sodipodi:rx="63.135593" sodipodi:ry="74.152542" sodipodi:start="3.4976398" sodipodi:end="5.9271381" d="m 122.60379,-58.135634 a 63.135593,74.152542 0 0 1 59.17586,-48.305036 63.135593,74.152542 0 0 1 59.17585,48.305032 l -59.17585,25.847506 z"/><path inkscape:connector-curvature="0" id="path836" d="m 2.7508807,128.35972 c -2.11391744,-1.12637 -2.34925863,-3.32677 -0.8482634,-7.93086 l 0.9714869,-2.97989 38.2547758,-0.0756 c 27.10035,-0.0535 38.36805,0.0184 38.643255,0.24678 0.551825,0.45797 2.208434,5.95607 2.207103,7.32513 -5.95e-4,0.62996 -0.26287,1.57468 -0.582799,2.09938 -1.224388,2.00806 1.561995,1.8782 -40.002212,1.8644 -35.6685287,-0.0119 -37.6885055,-0.0406 -38.6433463,-0.54932 z m 3.3604968,-15.35368 c -0.1930104,-0.50297 0.4946216,-1.9149 1.2777648,-2.62363 0.3095937,-0.28017 1.060839,-0.71747 1.6694415,-0.97176 1.0259722,-0.42867 1.1065532,-0.55285 1.1065532,-1.70521 0,-1.60749 0.945534,-3.54087 2.051072,-4.19393 0.809524,-0.47821 2.885552,-0.51498 29.074995,-0.51498 31.133682,0 29.358746,-0.10897 30.5696,1.8769 0.38224,0.62688 0.582073,1.49296 0.582807,2.52581 6.55e-4,1.44502 0.06721,1.5953 0.82058,1.86299 2.107469,0.74881 3.697691,2.53621 3.263381,3.66801 -0.176003,0.45864 -2.822064,0.49589 -35.222644,0.49589 -29.868127,0 -35.0561116,-0.062 -35.1935505,-0.42009 z M 120.74657,99.991474 C 120.18819,99.651062 109.76214,91.337679 97.577577,81.517303 85.393008,71.696927 75.305228,63.662063 75.160285,63.662063 c -0.144942,0 -0.647619,0.200317 -1.117059,0.445148 -1.729327,0.901907 -2.141012,0.741768 -9.277033,-3.608581 -2.522804,-1.537984 -4.6951,-2.796335 -4.827321,-2.796335 -0.132222,0 -1.483281,1.542089 -3.002366,3.426866 -1.519078,1.884777 -2.97573,3.424147 -3.237,3.420822 -0.755741,-0.0096 -22.811543,-17.941843 -22.906105,-18.62356 -0.05551,-0.40041 3.671181,-5.24558 11.570563,-15.043087 12.628644,-15.663143 12.98365,-16.091378 13.339666,-16.091378 0.553523,0 22.856576,18.228988 22.941444,18.750763 0.05735,0.352366 -0.918465,1.808709 -2.607398,3.891508 -1.48444,1.830623 -2.698992,3.396546 -2.698992,3.479828 0,0.08328 1.910854,2.155785 4.246338,4.605563 5.001384,5.246144 5.534248,6.070622 5.059603,7.828506 -0.250135,0.926407 -0.244302,1.313017 0.02392,1.584938 0.19512,0.197805 10.411782,8.452085 22.703695,18.34284 16.70139,13.438859 22.51718,18.280214 23.01471,19.158594 1.41096,2.491015 0.51412,6.059146 -1.87482,7.459166 -1.62674,0.953326 -4.28818,0.998466 -5.76556,0.0978 z M 41.980513,77.685318 c -5.905267,-1.887812 -14.417086,-7.98098 -18.826685,-13.477035 -2.78055,-3.465633 -4.349027,-6.663699 -4.340402,-8.849907 0.0074,-1.882788 0.460035,-2.666045 1.982476,-3.430797 0.520379,-0.261395 1.769372,-1.482725 2.775537,-2.714066 1.006164,-1.231343 1.956522,-2.238802 2.111912,-2.238802 0.155384,0 5.141805,3.908088 11.080923,8.684643 5.939125,4.776556 12.165533,9.771587 13.836457,11.10007 1.774961,1.411201 3.044835,2.638839 3.054378,2.952808 0.009,0.295556 -0.726013,1.456162 -1.633335,2.579141 -0.915006,1.132487 -1.816122,2.616673 -2.023434,3.332695 -0.546607,1.887947 -1.798208,2.644125 -4.342151,2.623411 -1.082041,-0.0083 -2.736094,-0.261783 -3.675676,-0.562161 z m 27.5204,-56.376207 C 60.659758,14.191581 55.757367,10.055607 55.757367,9.7141532 c 0,-0.2919312 0.804404,-1.514943 1.787572,-2.7178023 0.98316,-1.2028519 1.787729,-2.4283351 1.787925,-2.7232937 0.0014,-1.7074812 1.896389,-3.1885727 4.080134,-3.1885727 4.517106,0 13.15667,4.6722532 19.285594,10.4296015 4.665056,4.382229 7.923423,9.623866 7.923423,12.746163 0,1.374556 -0.124186,1.727315 -0.871041,2.474169 -0.479074,0.479075 -1.061114,0.871039 -1.293415,0.871039 -0.232302,0 -1.320347,1.072761 -2.417869,2.383912 -1.097522,1.311146 -2.17544,2.383906 -2.395361,2.383906 -0.219928,0 -6.584463,-4.978877 -14.143416,-11.064164 z" style="fill:#f5c400;stroke-width:0.29798844;fill-opacity:1"/></svg>