<svg xmlns:dc="http://purl.org/dc/elements/1.1/" xmlns:cc="http://creativecommons.org/ns#" xmlns:rdf="http://www.w3.org/1999/02/22-rdf-syntax-ns#" xmlns:svg="http://www.w3.org/2000/svg" xmlns="http://www.w3.org/2000/svg" xmlns:sodipodi="http://sodipodi.sourceforge.net/DTD/sodipodi-0.dtd" xmlns:inkscape="http://www.inkscape.org/namespaces/inkscape" version="1.1" id="Layer_1" x="0px" y="0px" width="130" height="130" viewBox="0 0 130 130" xml:space="preserve" inkscape:version="0.92.4 (5da689c313, 2019-01-14)" sodipodi:docname="Skull_Dunkelblau.svg" inkscape:export-filename="C:\Users\carol\Downloads\Andreas_Icons\Skull_dunkelblau_48.png" inkscape:export-xdpi="35.446156" inkscape:export-ydpi="35.446156"><metadata id="metadata113"/><defs id="defs111"><clipPath clipPathUnits="userSpaceOnUse" id="clipPath2481"><rect style="opacity:1;fill:#ffffff;fill-opacity:1;stroke:none;stroke-width:0.37979412;stroke-miterlimit:10;stroke-dasharray:none;stroke-dashoffset:0;stroke-opacity:1" id="rect2483" width="230.30434" height="309.49979" x="84.040886" y="472.79477" transform="matrix(0.72916041,0.68434282,-0.68274375,0.7306579,0,0)"/></clipPath></defs><path style="opacity:1;fill:#14344c;fill-opacity:1;stroke:none;stroke-width:0.75590551;stroke-linecap:round;stroke-linejoin:bevel;stroke-miterlimit:4;stroke-dasharray:none;stroke-dashoffset:0;stroke-opacity:1" id="path911" sodipodi:type="arc" sodipodi:cx="-0.84745687" sodipodi:cy="-36.525436" sodipodi:rx="58.474575" sodipodi:ry="70.762711" sodipodi:start="3.4976398" sodipodi:end="5.9271381" d="M -55.654623,-61.191338 A 58.474575,70.762711 0 0 1 -0.84745865,-107.28815 58.474575,70.762711 0 0 1 53.959708,-61.191342 l -54.80716487,24.665906 z"/><path style="opacity:1;fill:#f5c400;fill-opacity:1;stroke:none;stroke-width:0.75590551;stroke-linecap:round;stroke-linejoin:bevel;stroke-miterlimit:4;stroke-dasharray:none;stroke-dashoffset:0;stroke-opacity:1" id="path913" sodipodi:type="arc" sodipodi:cx="181.77965" sodipodi:cy="-32.288132" sodipodi:rx="63.135593" sodipodi:ry="74.152542" sodipodi:start="3.4976398" sodipodi:end="5.9271381" d="m 122.60379,-58.135634 a 63.135593,74.152542 0 0 1 59.17586,-48.305036 63.135593,74.152542 0 0 1 59.17585,48.305032 l -59.17585,25.847506 z"/><path inkscape:connector-curvature="0" id="path836" d="m 57.075234,129.17242 c -1.441553,-0.10505 -2.751634,-0.27172 -2.911289,-0.37039 -0.195533,-0.12086 -0.290277,-1.57235 -0.290277,-4.44688 0,-5.28998 -0.281509,-6.05325 -2.232575,-6.05325 -0.35065,0 -0.923384,0.28584 -1.272743,0.6352 -0.623649,0.62364 -0.635192,0.71365 -0.635192,4.95371 v 4.31852 l -1.487993,-0.15885 c -3.406072,-0.36362 -7.227413,-1.63757 -8.564981,-2.85537 -1.375935,-1.25274 -1.592198,-2.14621 -1.592198,-6.57802 0,-4.70773 -0.306106,-6.03845 -1.712531,-7.44488 -1.007593,-1.00759 -2.925315,-1.66672 -4.868676,-1.67337 -2.264357,-0.008 -4.828234,-0.70622 -7.575781,-2.06383 -2.080402,-1.02795 -3.047703,-1.70245 -4.555664,-3.17662 -2.11794,-2.07049 -3.418342,-3.86485 -3.20459,-4.42188 0.165684,-0.431762 0.02996,-0.453887 7.754555,1.26395 6.109032,1.35856 6.690889,1.36646 7.401457,0.10051 0.47077,-0.83874 0.21988,-1.914464 -0.56672,-2.429859 -0.325276,-0.213136 -4.1935,-1.18279 -8.596043,-2.154788 l -8.004639,-1.76728 -0.213516,-1.147959 c -0.493506,-2.653265 0.194069,-6.72608 1.706667,-10.109386 0.417152,-0.933075 0.413022,-0.953401 -0.630932,-3.105387 -3.96563,-8.17466 -5.5161881,-15.050012 -5.5075981,-24.421382 0.0082,-8.980786 1.4484431,-15.564367 5.0807941,-23.225651 0.725427,-1.530047 1.420842,-2.781904 1.545378,-2.781904 0.262825,0 0.304972,0.132976 0.687575,2.169293 0.480172,2.555577 1.217591,3.69421 4.712373,7.276237 1.805222,1.850289 3.413926,3.618524 3.574902,3.929408 0.181742,0.350975 0.292687,2.124165 0.292687,4.677654 0,4.026692 -0.01319,4.124792 -0.632373,4.706495 -2.186362,2.053984 -1.853061,5.656878 0.641662,6.936106 2.189094,1.122512 4.697092,0.421107 5.668352,-1.585252 0.908988,-1.877712 0.677787,-3.529782 -0.716153,-5.117389 L 29.602797,52.177068 29.493249,47.780847 C 29.340792,41.663045 29.198749,41.328409 24.880914,36.915088 23.070656,35.0648 21.400557,33.178242 21.169577,32.722737 20.827879,32.048889 20.749614,31.016994 20.749614,27.185585 v -4.708963 l 0.967279,-1.19117 c 1.726386,-2.125984 5.576033,-5.993694 7.960687,-7.998034 3.298445,-2.77239 6.728522,-4.9460245 11.309811,-7.1670083 4.593038,-2.2266754 8.292133,-3.5034491 12.719074,-4.3900943 3.175905,-0.6360825 8.634651,-1.24930165 9.017075,-1.01295034 0.114121,0.0705553 0.207481,2.25541804 0.207481,4.85530724 0,4.6785587 -0.0065,4.7331787 -0.632373,5.3211647 -2.166359,2.03519 -1.776009,5.772288 0.729636,6.985247 1.395196,0.675404 2.550788,0.675404 3.945983,0 2.505644,-1.212959 2.895995,-4.950057 0.729637,-6.985247 -0.625882,-0.587986 -0.632373,-0.642606 -0.632373,-5.3211647 0,-2.5998892 0.09336,-4.78478174 0.20748,-4.85530724 0.38159,-0.23583073 5.838089,0.37624694 9.000917,1.00968284 4.478219,0.896861 8.326848,2.225063 12.812179,4.4216048 7.41987,3.6336455 12.602843,7.6172093 18.131593,13.9356973 l 2.02923,2.319101 v 4.74555 c 0,3.86516 -0.0779,4.899191 -0.41995,5.573736 -0.23099,0.455505 -1.90108,2.342063 -3.71134,4.192351 -4.3325,4.428318 -4.47609,4.766325 -4.61363,10.860542 l -0.0991,4.391002 -0.770961,0.878074 c -1.375638,1.566768 -1.621308,3.22119 -0.75995,5.117878 0.55331,1.218404 2.166351,2.172242 3.673471,2.172242 1.32059,0 3.08367,-1.000352 3.64163,-2.066217 0.89435,-1.708502 0.47014,-4.103083 -0.96586,-5.452148 -0.61919,-0.581703 -0.63238,-0.679803 -0.63238,-4.706495 0,-2.575825 0.11026,-4.323609 0.29507,-4.677654 0.16229,-0.310884 1.76831,-2.079119 3.56892,-3.929408 3.48546,-3.581615 4.24073,-4.746921 4.71597,-7.276237 0.3826,-2.036317 0.42476,-2.169293 0.68757,-2.169293 0.12454,0 0.81996,1.251857 1.54539,2.781904 3.60602,7.60576 5.0545,14.193848 5.07799,23.09626 0.0248,9.406327 -1.52982,16.33748 -5.50676,24.550773 -1.04185,2.151658 -1.04606,2.172461 -0.62897,3.105387 1.51225,3.382511 2.2002,7.456181 1.70696,10.107697 l -0.21324,1.14625 -7.80768,1.726847 c -4.29423,0.949764 -8.156871,1.871484 -8.583651,2.048259 -1.000914,0.4146 -1.386657,1.449339 -0.938028,2.516299 0.615318,1.46343 0.787638,1.45907 8.439989,-0.21331 3.36152,-0.73465 6.30975,-1.259794 6.55161,-1.166985 0.40073,0.153777 0.38656,0.263695 -0.15988,1.239055 -0.751,1.34047 -3.56338,4.23979 -5.20921,5.37022 -2.76134,1.89663 -6.48594,3.12337 -9.511759,3.13281 -2.064736,0.006 -3.968519,0.64383 -4.998062,1.67337 -1.406424,1.40643 -1.712531,2.73715 -1.712531,7.44488 0,4.43181 -0.216263,5.32528 -1.592198,6.57802 -1.337569,1.2178 -5.15891,2.49175 -8.564983,2.85537 l -1.487992,0.15885 v -4.31852 c 0,-4.24006 -0.01155,-4.33007 -0.635192,-4.95371 -0.770883,-0.77089 -1.914183,-0.82922 -2.764995,-0.14108 -0.592174,0.47896 -0.614902,0.63956 -0.740322,5.23028 l -0.129387,4.73615 -0.881052,0.17964 c -0.484575,0.0988 -2.464255,0.21978 -4.399291,0.26884 l -3.518238,0.0892 -0.129385,-5.00498 c -0.125999,-4.8737 -0.145418,-5.01793 -0.740316,-5.49911 -0.336019,-0.27178 -0.934486,-0.49414 -1.329943,-0.49414 -0.395451,0 -0.993917,0.22236 -1.329936,0.49414 -0.594898,0.48118 -0.614317,0.62541 -0.740316,5.49911 l -0.129386,5.00498 -1.55269,0.0317 c -0.853979,0.0174 -2.732152,-0.0543 -4.17371,-0.15935 z m 14.066758,-20.69486 c 1.812641,-0.82284 2.75555,-2.9747 2.165888,-4.94284 -0.388945,-1.29819 -5.015476,-9.974151 -5.716998,-10.720892 -0.824666,-0.877819 -2.368382,-1.253484 -3.615508,-0.879825 -0.564245,0.169046 -1.263498,0.560269 -1.553881,0.869374 -0.663384,0.706129 -5.251287,9.236443 -5.69248,10.584053 -0.683907,2.08899 0.220844,4.22218 2.165296,5.10524 0.918306,0.41705 1.73827,0.48172 6.106963,0.48172 4.423496,0 5.181317,-0.0613 6.14072,-0.49683 z M 45.075088,93.183274 c 2.222766,-0.359025 4.879155,-1.29801 6.672542,-2.358595 2.04768,-1.210984 4.997485,-4.19044 5.83308,-5.891715 l 0.69224,-1.409417 V 59.677168 35.830788 l 0.554116,-0.492976 c 0.765555,-0.681091 1.503644,-2.381029 1.510457,-3.478828 0.0082,-1.33043 -0.986262,-3.096276 -2.060534,-3.658629 -1.756127,-0.919287 -4.376541,-0.412122 -5.414181,1.047885 -1.27385,1.792375 -1.127762,3.913169 0.391842,5.688488 l 0.877798,1.025508 v 21.898727 c 0,17.474914 -0.06649,21.924226 -0.328963,22.024962 -0.180929,0.06944 -1.72391,-0.49332 -3.428858,-1.250553 L 47.274733,77.25859 47.141265,63.68577 C 46.981182,47.406082 47.293153,48.943724 42.996219,43.255238 40.602712,40.086606 40.675805,40.36327 40.675805,34.471752 v -5.186243 l 0.882979,-1.156766 c 1.390951,-1.822249 1.515757,-3.44621 0.404824,-5.267604 -0.565386,-0.926968 -2.258349,-1.846112 -3.417515,-1.855437 -2.743737,-0.02208 -4.810028,2.695681 -4.067052,5.349323 0.191059,0.682408 0.687811,1.519882 1.191925,2.009468 l 0.86433,0.83943 v 5.057536 c 0,4.303507 0.07613,5.304009 0.510613,6.710707 0.482683,1.562743 2.103502,4.213238 4.007249,6.552969 0.463229,0.56932 1.091864,1.525407 1.396958,2.124639 0.543571,1.06761 0.554721,1.33179 0.554721,13.14129 0,9.820947 -0.06406,12.076353 -0.345992,12.184544 -0.190295,0.07302 -3.305377,-1.170422 -6.922405,-2.763213 -3.696298,-1.627701 -6.939113,-2.90206 -7.404589,-2.909855 -1.89645,-0.03176 -2.795172,2.174048 -2.777872,6.817965 0.0099,2.663279 0.09906,3.232272 0.848379,5.415025 2.116785,6.166198 6.542206,10.194864 12.634509,11.501806 2.157926,0.462921 3.826114,0.503245 6.038221,0.145938 z m 47.30977,-0.500533 c 2.481418,-0.673136 5.308086,-2.376676 7.182161,-4.328441 3.841981,-4.001277 5.768651,-10.421699 4.671901,-15.568719 -0.69959,-3.283165 -1.52846,-3.96312 -3.83886,-3.149148 -0.752951,0.26527 -3.902628,1.599804 -6.999292,2.965627 -3.096655,1.365827 -5.804151,2.483318 -6.016669,2.483318 -0.337239,0 -0.386077,-1.555176 -0.383959,-12.227433 l 0.0022,-12.22743 0.774294,-1.293909 c 0.425862,-0.711649 1.588773,-2.4002 2.584252,-3.752333 2.827031,-3.8399 2.945126,-4.259999 3.053196,-10.861151 l 0.09096,-5.556126 0.845318,-0.820967 c 2.135705,-2.074171 1.632961,-5.547688 -0.986483,-6.815739 -0.602468,-0.291649 -1.437093,-0.527715 -1.854731,-0.524588 -1.200748,0.0089 -2.895023,0.911769 -3.46255,1.844987 -1.114265,1.832257 -0.9957,3.453599 0.3848,5.262149 l 0.895113,1.172671 v 5.052314 c 0,5.828504 -0.0088,5.863158 -2.266296,8.848134 -4.359056,5.763955 -4.038896,4.200994 -4.199165,20.499742 l -0.133368,13.572742 -3.086782,1.381888 c -1.697735,0.760044 -3.240717,1.322828 -3.428858,1.250623 -0.279859,-0.107383 -0.342088,-4.114818 -0.342088,-22.029989 V 35.962236 l 0.877799,-1.025508 c 2.614365,-3.054298 0.890583,-7.208388 -2.991196,-7.208388 -1.599609,0 -2.818542,0.721122 -3.515105,2.079539 -0.939814,1.83281 -0.616059,3.903684 0.84952,5.433811 l 0.627978,0.655638 0.06998,24.058007 0.06991,24.058006 0.758257,1.290123 c 1.109949,1.888521 2.870248,3.671955 5.010697,5.076583 4.47142,2.934264 9.523009,3.722533 14.756916,2.302694 z" style="fill:#14344c;stroke-width:0.25878161;fill-opacity:1"/></svg>